PathFileType	4	(X/Y/Z)	 s09c0401.trc
DataRate	CameraRate	NumFrames	NumMarkers	Units	OrigDataRate	OrigDataStartFrame	OrigNumFrames
200	200	4	50	mm	200	1001	2000
Frame#	Time	racr			lacr			c7			jug			rlel			rdr			llel			ldr			s2			lic			ric			lasi			rasi			rpsi			lpsi			rgt			lgt			rth1			rth2			rth3			rth4			rlfc			rmfc			rsh1			rsh2			rsh3			rsh4			rlmal			rmmal			rcal			rtoe			rmt5			lth1			lth2			lth4			lth3			llfc			lmfc			llmal			lmmal			lcal			lmt5			lsh1			lsh2			lsh3			lsh4			ltoe			SBIKE			LBIKE			RBIKE			
		X1	Y1	Z1	X2	Y2	Z2	X3	Y3	Z3	X4	Y4	Z4	X5	Y5	Z5	X6	Y6	Z6	X7	Y7	Z7	X8	Y8	Z8	X9	Y9	Z9	X10	Y10	Z10	X11	Y11	Z11	X12	Y12	Z12	X13	Y13	Z13	X14	Y14	Z14	X15	Y15	Z15	X16	Y16	Z16	X17	Y17	Z17	X18	Y18	Z18	X19	Y19	Z19	X20	Y20	Z20	X21	Y21	Z21	X22	Y22	Z22	X23	Y23	Z23	X24	Y24	Z24	X25	Y25	Z25	X26	Y26	Z26	X27	Y27	Z27	X28	Y28	Z28	X29	Y29	Z29	X30	Y30	Z30	X31	Y31	Z31	X32	Y32	Z32	X33	Y33	Z33	X34	Y34	Z34	X35	Y35	Z35	X36	Y36	Z36	X37	Y37	Z37	X38	Y38	Z38	X39	Y39	Z39	X40	Y40	Z40	X41	Y41	Z41	X42	Y42	Z42	X43	Y43	Z43	X44	Y44	Z44	X45	Y45	Z45	X46	Y46	Z46	X47	Y47	Z47	X48	Y48	Z48	X49	Y49	Z49	X50	Y50	Z50	
1001	5.0050	653.264826	1294.973584	0.285979	694.455722	1279.058263	-365.247302	652.262738	1382.722692	-183.501009	663.058503	1241.091811	-184.437503	614.453595	1061.336802	105.745313	650.410394	871.323864	-51.001826	587.814596	1087.444677	-539.793268	627.192863	866.014135	-433.536536	192.326097	1155.905306	-245.088138	343.825949	1159.720481	-376.397474	319.426486	1138.694512	-80.676163	377.768794	1099.843648	-350.226618	364.608740	1083.019192	-103.003464	219.809778	1182.031222	-180.034520	225.412677	1197.264187	-288.315288	279.346524	991.832209	-56.023581	312.854587	1031.500121	-430.534624	334.814544	868.385144	-56.211718	379.749437	794.160320	-65.962264	379.436965	705.766508	-79.291160	410.520555	803.479975	-82.616996	401.949272	615.180122	-108.804829	388.779185	594.613567	-203.047347	355.394642	522.149717	-76.442039	360.016049	433.114483	-89.278707	319.757371	355.486802	-89.729216	386.466983	431.100926	-119.349188	291.339967	257.034293	-88.885706	295.185812	267.540562	-164.437437	211.494735	233.685105	-123.925949	473.054586	179.254232	-125.593446	387.981478	174.828259	-61.601282	412.047224	935.539199	-434.162895	486.256293	895.354878	-422.075852	509.115537	918.865690	-402.112040	534.000408	818.668565	-420.565542	562.246486	728.821716	-403.072156	564.454268	710.090069	-303.222097	223.303108	588.981868	-406.445093	243.856338	579.953759	-334.336756	152.028100	618.143890	-364.580643	221.436248	460.820557	-428.286064	473.726892	687.651177	-423.054104	403.982796	636.829504	-411.592989	315.619599	626.239229	-411.213521	415.889902	614.303553	-381.603445	290.893223	398.098117	-360.545475	-64.426097	853.814864	-238.031573	20.844292	84.956793	-441.900644	21.169353	84.006961	-43.733380	
1002	5.0100	653.327050	1295.965112	-1.960435	693.443606	1279.771303	-368.167225	651.964236	1383.445746	-186.158118	663.282921	1242.242423	-186.912564	614.310141	1062.269679	103.735565	650.454599	870.818210	-51.559185	588.273539	1087.171262	-542.111532	627.162757	866.444436	-434.064513	192.168893	1154.875593	-243.323177	342.358070	1158.950763	-376.093846	320.828227	1137.308945	-80.367811	377.006142	1099.266729	-350.154856	365.582087	1081.702488	-103.057264	220.366948	1180.921053	-178.648608	224.744845	1196.158308	-286.894473	279.328229	990.603703	-55.809714	312.177945	1031.102731	-430.720596	332.015827	866.365321	-55.657797	375.921365	791.370040	-65.270445	374.213511	703.176737	-78.730351	406.953145	800.423243	-81.752059	395.794450	612.581392	-108.479326	382.890958	591.908949	-202.748543	349.345679	519.585455	-76.334191	354.589123	430.306737	-88.968376	314.269640	352.791420	-89.595788	380.557879	428.473518	-119.356953	285.903435	254.432569	-88.844519	292.823536	263.917649	-163.630953	208.740839	229.868269	-125.456389	467.192339	174.050896	-125.415229	381.913519	170.832586	-61.515406	413.514819	936.721617	-433.873949	487.930540	897.878685	-422.040436	510.576771	921.314477	-401.175081	537.104575	821.637362	-419.781253	566.414478	732.705525	-402.383007	568.445858	713.892554	-302.409418	227.675103	592.021985	-406.674323	248.094400	584.224689	-334.317267	155.360560	621.221791	-364.733360	227.612843	465.169196	-428.342818	478.095298	691.888409	-422.350384	408.334404	641.032900	-411.145811	320.030853	630.280827	-410.981486	420.230694	618.212035	-381.257645	297.905901	403.708615	-360.696402	-64.489678	853.802961	-238.107650	20.829674	84.942128	-441.916172	21.154669	84.018990	-43.749453	
1003	5.0150	653.445727	1297.004846	-4.219369	692.534105	1280.388885	-371.254291	652.826117	1381.172955	-190.423316	663.410719	1243.315406	-189.524190	614.164473	1063.287030	101.670709	650.093643	870.041380	-51.669294	588.763507	1086.863768	-544.499250	626.939750	866.950081	-434.993627	192.177718	1154.312669	-241.646620	341.023098	1158.392129	-375.838482	322.195992	1136.349027	-80.235184	376.294253	1098.877877	-350.159843	366.538709	1080.629640	-103.158505	221.069514	1180.297252	-177.271730	224.424821	1195.600456	-285.625995	279.105934	989.667258	-55.699841	311.441693	1030.810775	-430.402812	329.245433	864.801808	-55.025951	371.568509	788.990787	-64.370554	368.929964	700.882575	-78.181332	403.290999	797.473994	-80.945005	389.512034	610.223925	-108.074964	376.852756	589.627005	-202.595275	343.196129	517.335101	-76.215577	348.795968	428.091741	-88.715104	308.622355	350.383058	-89.444968	374.827885	426.283628	-119.061940	280.328731	252.119823	-88.867573	287.869789	261.372808	-163.497423	203.123386	228.817728	-125.477318	461.070372	169.230065	-125.328829	375.695636	167.070574	-61.523933	414.539761	938.089200	-433.151092	489.894855	899.954422	-420.215486	511.745891	923.919553	-400.345864	539.704774	824.645611	-419.278064	570.394292	736.734057	-401.608668	572.237979	718.011253	-301.348729	231.923749	594.778526	-406.868585	252.153065	587.859775	-334.384984	158.649067	623.977214	-365.222648	233.782092	469.141292	-428.470060	482.175702	696.102738	-421.700984	412.529937	644.908085	-410.712890	324.196739	634.069519	-410.748085	424.390580	622.045167	-380.923911	305.631911	409.280079	-361.298888	-64.526647	853.786662	-238.178088	20.823889	84.908757	-441.919274	21.134091	84.018400	-43.751320	
1004	5.0200	653.579309	1298.094470	-6.570830	691.755794	1280.908816	-374.292046	653.747623	1381.368552	-193.210921	663.748855	1244.087879	-192.099984	613.932976	1064.277000	99.429893	649.964964	869.567622	-52.153494	589.293763	1086.526668	-546.896529	626.960588	867.377865	-435.450222	192.265460	1154.050663	-240.046792	339.768710	1158.064547	-375.538393	323.618849	1135.712054	-79.964959	375.405939	1098.691378	-350.442068	367.471209	1079.831008	-103.345851	221.782827	1179.859116	-175.880896	224.318326	1195.383881	-283.533850	278.748530	988.953989	-55.600073	311.311930	1030.865958	-430.099045	326.588596	863.436805	-54.338462	367.734600	786.873663	-63.662825	363.580825	698.940983	-77.628866	399.665922	794.828713	-80.028022	383.355986	608.194148	-107.573055	370.958953	587.536215	-202.424502	337.021935	515.528771	-76.044086	342.951097	426.263784	-88.349327	302.967974	348.421692	-89.264727	369.490005	424.655474	-118.470219	274.793672	250.189246	-88.996648	282.961508	259.176475	-163.393853	197.826681	227.988365	-125.618471	454.774423	164.439878	-125.327394	369.408796	163.706548	-61.481214	415.297984	939.668463	-432.062353	491.185679	902.228862	-418.940826	512.705537	926.599241	-399.465939	541.807483	827.758104	-418.784820	574.124615	740.843084	-400.730088	575.874525	722.126655	-300.268982	236.022197	597.367671	-406.981724	256.131083	591.195528	-334.346815	161.582420	626.067282	-365.290762	240.166621	472.911641	-428.780613	486.013060	700.085468	-420.963681	416.483141	648.739292	-410.315398	328.227425	637.554264	-410.474582	428.168717	626.195472	-380.321204	313.017384	414.382619	-361.178463	-64.584720	853.771340	-238.240578	20.812216	84.882623	-441.921546	21.150548	83.973210	-43.742485	
